<?xml version="1.0" encoding="utf-8"?><svg xmlns="http://www.w3.org/2000/svg" xmlns:xlink="http://www.w3.org/1999/xlink"><symbol viewBox="0 0 29 35" id="2-layers" xmlns="http://www.w3.org/2000/svg"><defs><path id="aa" d="M101.18 67.35l6.43 9.38c.4.59 1.07.6 1.48 0l2.72-3.94c.4-.6.2-.87-.48-.63l-3.49 1.3-3.14-6.66a1.8 1.8 0 0 0-1.84-.95l-1.13.2c-.71.12-.95.7-.55 1.3zM106.5 62a9.5 9.5 0 1 1 0 19 9.5 9.5 0 0 1 0-19z"/><path id="ab" d="M94.5 53.22c-.49 0-.88-.71-.88-1.6 0-.87.39-1.58.88-1.58.48 0 .87.7.87 1.59 0 .88-.39 1.6-.87 1.6zm-4.92-.3c-.49 0-.89-.7-.89-1.59 0-.88.4-1.6.89-1.6s.88.72.88 1.6c0 .88-.4 1.6-.88 1.6zm16.25 7.28c.6 0 1.17.06 1.74.15a7.3 7.3 0 0 1-1.08-2.04c-6.8-2.9-7.98-12.91-8.03-13.38.01.1 2.37 9.55 8.5 12.24.62-.53 1.5-1.9 1.83-5.33.51-5.48.94-9.26-9.54-9.44 0 0-3.69-.65-6.5-.3a13.96 13.96 0 0 0-6.26 8.3l-.05 2.76-5.54 2.43s-1.23 1.63-.82 3.35c.4 1.67.71 4.18 4.89 4.53v-4.6c-.87-.15-1.5-.62-1.5-1.19 0-.69.94-1.25 2.11-1.25s2.12.56 2.12 1.25c0 .57-.64 1.04-1.5 1.2v4.65c4.07.15 6.08-.02 6.08-.02l.91 5.37L94.61 77h2.14a10.66 10.66 0 0 1-1.84-5.99c0-5.96 4.9-10.8 10.92-10.8z"/></defs><use xlink:href="#aa" transform="translate(-87 -42)"/><use xlink:href="#ab" transform="translate(-87 -42)"/></symbol><symbol viewBox="0 0 17 10" id="arrow" xmlns="http://www.w3.org/2000/svg"><defs><path id="ba" d="M423.52 1209l-6.22-6.24c-.4-.4-.4-1.06 0-1.46.4-.4 1.05-.4 1.46 0l6.94 6.97c.4.4.4 1.06 0 1.46l-6.94 6.97c-.2.2-.46.3-.73.3a1.03 1.03 0 0 1-.73-1.76z"/></defs><use xlink:href="#ba" transform="translate(-413 -1204)"/></symbol><symbol viewBox="0 0 9 14" id="arrow-right" xmlns="http://www.w3.org/2000/svg"><defs><path id="ca" d="M290.3 1102.64c-.4-.38-.4-1 0-1.37.38-.36.99-.36 1.37 0l6.36 5.93c.4.37.4 1 0 1.36l-6.36 5.93a.99.99 0 0 1-.69.27c-.25 0-.5-.1-.68-.27-.4-.37-.4-1 0-1.37l5.63-5.24z"/></defs><use xlink:href="#ca" transform="translate(-290 -1101)"/></symbol><symbol viewBox="0 0 13 13" id="breed-item" xmlns="http://www.w3.org/2000/svg"><defs><path id="da" d="M495 1282a3 3 0 0 1 3-3h7a3 3 0 0 1 3 3v7a3 3 0 0 1-3 3h-7a3 3 0 0 1-3-3z"/></defs><use xlink:href="#da" transform="translate(-495 -1279)"/></symbol><symbol viewBox="0 0 16 10" id="check" xmlns="http://www.w3.org/2000/svg"><defs><path id="ea" d="M377.08 211.31a.67.67 0 0 1-.47-1.13l4.8-4.8-8.22-8.25a.67.67 0 0 1 0-.94.66.66 0 0 1 .94 0l8.68 8.72c.25.25.25.68 0 .93l-5.26 5.28a.64.64 0 0 1-.47.2z"/></defs><use xlink:href="#ea" transform="translate(-370 -199)"/></symbol><symbol viewBox="0 0 14 13" id="cross" xmlns="http://www.w3.org/2000/svg"><defs><path id="fa" d="M513.72 992.49l-6.02 6 6.02 6.02-.71.7-6.01-6-6.01 6-.71-.7 6.01-6.01-6.01-6.01.7-.71 6.02 6.01 6-6.01z"/></defs><use xlink:href="#fa" transform="translate(-500 -992)"/></symbol><symbol viewBox="0 0 22 18" id="crown" xmlns="http://www.w3.org/2000/svg"><defs><path id="ga" d="M788.38 1130.2l-.01.2-1.29 5.87c-.06.3-.3.5-.56.5l-7.7.05h-7.7c-.27 0-.5-.21-.56-.51l-1.29-5.89a.76.76 0 0 1-.01-.2c-.5-.18-.86-.6-.86-1.23 0-.78.56-1.28 1.24-1.28.67 0 1.2.5 1.2 1.28 0 .43-.16.71-.44.97l1.6 1.85c.41.47.98.74 1.55.74a2.1 2.1 0 0 0 1.74-1l2.64-4a1.5 1.5 0 0 1-.35-.98c0-.77.54-1.15 1.22-1.15.67 0 1.22.38 1.22 1.15 0 .37-.13.71-.34.96l2.63 4.02c.4.62 1.06 1 1.74 1 .58 0 1.13-.26 1.54-.73l1.62-1.85a1.25 1.25 0 0 1-.46-.98c0-.78.59-1.28 1.26-1.28.68 0 1.19.5 1.19 1.28 0 .6-.34 1.02-.82 1.21zm-1.78 11.18c0 .45-.25.82-.56.82h-14.48c-.3 0-.56-.37-.56-.82v-1.97c0-.45.25-.81.56-.81h14.48c.3 0 .56.36.56.81z"/></defs><use xlink:href="#ga" transform="translate(-768 -1125)"/></symbol><symbol viewBox="0 0 30 20" id="d-menu" xmlns="http://www.w3.org/2000/svg"><defs><path id="ha" d="M883.17 129.47h19.66v3.08h-19.66zm24.83-8.21v3.08h-30v-3.08zm-18.62 16.43h6.2v3.08h-6.2z"/></defs><use xlink:href="#ha" transform="translate(-878 -121)"/></symbol><symbol viewBox="0 0 29 35" id="dog-icon" xmlns="http://www.w3.org/2000/svg"><defs><path id="ia" d="M947.18 1034.35l6.43 9.38c.4.59 1.07.6 1.48 0l2.72-3.94c.4-.6.2-.87-.48-.63l-3.49 1.3-3.14-6.66a1.8 1.8 0 0 0-1.84-.95l-1.13.2c-.71.12-.95.7-.55 1.3zm5.32-5.35a9.5 9.5 0 1 1 0 19 9.5 9.5 0 0 1 0-19z"/><path id="ib" d="M940.5 1020.22c-.49 0-.88-.71-.88-1.6 0-.87.39-1.58.88-1.58.48 0 .87.7.87 1.59 0 .88-.39 1.6-.87 1.6zm-4.92-.3c-.49 0-.89-.7-.89-1.59 0-.88.4-1.6.89-1.6s.88.72.88 1.6c0 .88-.4 1.6-.88 1.6zm16.25 7.28c.6 0 1.17.06 1.74.15a7.3 7.3 0 0 1-1.08-2.04c-6.8-2.9-7.98-12.91-8.03-13.38.01.1 2.37 9.55 8.5 12.24.62-.53 1.5-1.9 1.83-5.33.51-5.48.94-9.26-9.54-9.44 0 0-3.69-.65-6.5-.3a13.96 13.96 0 0 0-6.26 8.3l-.05 2.76-5.54 2.43s-1.23 1.63-.82 3.35c.4 1.67.71 4.18 4.89 4.53v-4.6c-.87-.15-1.5-.62-1.5-1.19 0-.69.94-1.25 2.11-1.25s2.12.56 2.12 1.25c0 .57-.64 1.04-1.5 1.2v4.65c4.07.15 6.08-.02 6.08-.02l.91 5.37 1.42 8.12h2.14a10.66 10.66 0 0 1-1.84-5.99c0-5.96 4.9-10.8 10.92-10.8z"/></defs><use xlink:href="#ia" transform="translate(-933 -1009)"/><use xlink:href="#ib" transform="translate(-933 -1009)"/></symbol><symbol viewBox="0 0 13 13" id="empty-item" xmlns="http://www.w3.org/2000/svg"><defs><path id="ja" d="M517 1279h7a3 3 0 0 1 3 3v7a3 3 0 0 1-3 3h-7a3 3 0 0 1-3-3v-7a3 3 0 0 1 3-3zm0 1a2 2 0 0 0-2 2v7c0 1.1.9 2 2 2h7a2 2 0 0 0 2-2v-7a2 2 0 0 0-2-2z"/></defs><use xlink:href="#ja" transform="translate(-514 -1279)"/></symbol><symbol viewBox="0 0 16 15" id="faq-grey" xmlns="http://www.w3.org/2000/svg"><defs><path id="ka" d="M373.62 1031.33l-.26.18v.94c0 .39-.35.7-.77.7-.42 0-.77-.31-.77-.7v-1.01c0-.68.55-1.01.94-1.26.43-.26.7-.44.7-.99 0-.44-.39-.8-.87-.8s-.88.36-.88.8c0 .39-.34.7-.76.7s-.77-.31-.77-.7c0-1.2 1.08-2.19 2.41-2.19s2.41.98 2.41 2.2c0 1.28-.86 1.81-1.38 2.13zm-1.04 4.79c-.55 0-1-.47-1-1.03 0-.57.45-1.03 1-1.03s1 .46 1 1.03c0 .56-.45 1.03-1 1.03zm-.01-12.12a7.47 7.47 0 0 0-6.75 10.65l-1.76 3.48a.6.6 0 0 0 .05.6c.1.14.24.21.4.21.04 0 .08 0 .12-.02l3.85-1.15a7.35 7.35 0 0 0 4.09 1.23c4.1 0 7.43-3.36 7.43-7.5 0-4.14-3.33-7.5-7.43-7.5z"/></defs><use xlink:href="#ka" transform="translate(-364 -1024)"/></symbol><symbol viewBox="0 0 22 22" id="faq-white" xmlns="http://www.w3.org/2000/svg"><defs><path id="la" d="M87.97 1032.22c-.2.36-.43.68-.7.94l-1.45 1.33c-.2.18-.35.34-.47.47a1.9 1.9 0 0 0-.4.7l-.13.58c-.11.6-.45.89-1.02.89-.3 0-.54-.1-.74-.29-.2-.2-.3-.48-.3-.86 0-.48.07-.9.22-1.24.14-.35.34-.66.58-.92.25-.27.58-.58 1-.95.36-.31.62-.55.78-.72.17-.16.3-.34.41-.54.11-.2.17-.41.17-.65 0-.45-.17-.83-.5-1.15a1.85 1.85 0 0 0-1.32-.47c-.62 0-1.08.16-1.38.48-.3.31-.55.78-.75 1.4-.2.63-.56.96-1.1.96-.32 0-.59-.12-.8-.34a1.03 1.03 0 0 1-.34-.73c0-.54.18-1.09.52-1.64a4 4 0 0 1 1.52-1.38 4.77 4.77 0 0 1 2.33-.55c.83 0 1.55.16 2.18.46.64.3 1.12.72 1.47 1.24a3.04 3.04 0 0 1 .22 2.98zm-3.19 7.9a1.3 1.3 0 0 1-.88.34c-.35 0-.65-.12-.91-.34a1.18 1.18 0 0 1-.39-.94c0-.36.13-.66.38-.9.25-.25.55-.37.92-.37.36 0 .66.12.9.36.25.25.37.55.37.9 0 .4-.13.72-.39.94zM84 1023a11 11 0 1 0 0 22 11 11 0 0 0 0-22z"/></defs><use xlink:href="#la" transform="translate(-73 -1023)"/></symbol><symbol viewBox="0 0 25 20" id="hamburger" xmlns="http://www.w3.org/2000/svg"><defs><path id="ma" d="M1333 48.08V45h25v3.08z"/><path id="mb" d="M1333 56.29v-3.08h25v3.08z"/><path id="mc" d="M1333 64.51v-3.08h25v3.08z"/></defs><use xlink:href="#ma" transform="translate(-1333 -45)"/><use xlink:href="#mb" transform="translate(-1333 -45)"/><use xlink:href="#mc" transform="translate(-1333 -45)"/></symbol><symbol viewBox="0 0 29 26" id="heart" xmlns="http://www.w3.org/2000/svg"><defs><path id="na" d="M248.44 1034.76c-.55.97-1.56 1.42-2.26 1.02-.7-.4-.8-1.5-.25-2.47.55-.97 1.57-1.43 2.26-1.02.7.4.8 1.5.25 2.47zm-6.75 5.36c-2.59 0-4.69 2.24-4.69-.8 0-3.03 3-5.49 4.69-5.48 1.68 0 4.69 2.45 4.69 5.49 0 3.03-2.1.79-4.69.79zm-6.75-5.36c-.56-.96-.45-2.07.25-2.47.7-.4 1.71.05 2.27 1.02.56.96.45 2.07-.25 2.47-.7.4-1.72-.05-2.27-1.02zm3.82-6.26c.87-.24 1.85.56 2.17 1.77.33 1.22-.12 2.4-1 2.63-.87.23-1.84-.56-2.17-1.78-.32-1.21.12-2.39 1-2.62zm3.69 1.77c.32-1.21 1.3-2 2.17-1.77.88.23 1.32 1.4 1 2.62-.33 1.21-1.3 2-2.17 1.77-.88-.24-1.32-1.4-1-2.62zm13.55-.63c-.43-4.82-3.96-7.31-7.05-7.58-3.81-.34-5.81.84-7.45 2.41-1.64-1.57-3.65-2.75-7.45-2.41-3.1.27-6.62 2.76-7.05 7.58v1.58c.44 5.04 4.98 10.24 13.89 15.88l.6.38.62-.38c8.9-5.64 13.45-10.84 13.88-15.88l.01-1.48z"/></defs><use xlink:href="#na" transform="translate(-227 -1022)"/></symbol><symbol viewBox="0 0 24 24" id="id" xmlns="http://www.w3.org/2000/svg"><defs><path id="oa" d="M337.29 1109.38c.57 0 1-.17 1.26-.5.27-.34.41-.9.44-1.7v-.24c0-.88-.14-1.51-.41-1.9-.27-.38-.71-.57-1.33-.57-.5 0-.88.22-1.16.64a3.38 3.38 0 0 0-.42 1.84c0 .81.14 1.42.42 1.82.28.4.68.6 1.2.6zm-.79 1.78c-.96 0-1.72-.38-2.27-1.13a5.16 5.16 0 0 1-.82-3.1c0-1.35.28-2.4.84-3.14a2.72 2.72 0 0 1 2.31-1.13c1.03 0 1.82.4 2.36 1.2h.07a9.15 9.15 0 0 1-.17-1.63v-2.63h2.24v11.41h-1.7l-.44-1.06h-.1c-.5.8-1.28 1.2-2.32 1.2zm-7.38-.16v-10.7h2.27v10.7zm15.19-17h-18.62a2.7 2.7 0 0 0-2.69 2.69v18.62a2.7 2.7 0 0 0 2.69 2.69h18.62a2.7 2.7 0 0 0 2.69-2.69v-18.62a2.7 2.7 0 0 0-2.69-2.69z"/></defs><use xlink:href="#oa" transform="translate(-323 -1094)"/></symbol><symbol viewBox="0 0 20 20" id="oval" xmlns="http://www.w3.org/2000/svg"><defs><path id="pa" d="M478 304a10 10 0 1 1 20 0 10 10 0 0 1-20 0z"/></defs><use xlink:href="#pa" transform="translate(-478 -294)"/></symbol><symbol viewBox="0 0 15 9" id="quotes" xmlns="http://www.w3.org/2000/svg"><defs><path id="qa" d="M329.79 1036.72c.23-.97.65-2.29 1.25-3.94s1.2-3.14 1.84-4.48h2.99a94.6 94.6 0 0 0-1.78 8.8H330zm7.3 0a54.23 54.23 0 0 1 3.13-8.42h2.98a117 117 0 0 0-1.75 8.8h-4.1z"/></defs><use xlink:href="#qa" transform="translate(-329 -1028)"/></symbol><symbol viewBox="0 0 18 18" id="search" xmlns="http://www.w3.org/2000/svg"><defs><path id="ra" d="M33.5 1037a4.5 4.5 0 1 1 0-9 4.5 4.5 0 0 1 0 9zm6 0h-.8l-.27-.27a6.5 6.5 0 1 0-.7.7l.27.28v.79l5 5 1.49-1.5-4.99-5z"/></defs><use xlink:href="#ra" transform="translate(-27 -1026)"/></symbol><symbol viewBox="0 0 24 23" id="shape" xmlns="http://www.w3.org/2000/svg"><defs><path id="sa" d="M319.82 1038.52c.55-.19 1.15.12 1.33.68.18.55-.12 1.15-.68 1.33l-3.1 1.02a1.05 1.05 0 0 1-1.32-.68l-1-3.13a1.05 1.05 0 0 1 2-.65l.22.68c.42-1.04.63-2.14.63-3.27a8.55 8.55 0 0 0-8.5-8.58 8.55 8.55 0 0 0-8.5 8.58 8.55 8.55 0 0 0 8.5 8.58 1.06 1.06 0 0 1 0 2.12c-5.84 0-10.6-4.8-10.6-10.7 0-5.9 4.76-10.7 10.6-10.7 5.85 0 10.61 4.8 10.61 10.7 0 1.46-.3 2.9-.87 4.24z"/></defs><use xlink:href="#sa" transform="translate(-298 -1023)"/></symbol><symbol viewBox="0 0 30 22" id="speeker" xmlns="http://www.w3.org/2000/svg"><defs><path id="ta" d="M907.68 1080.71c0 3.06-1.09 5.45-2.72 6.64 0 0-.52.37-.52.96 0 .65.54 1.15 1.16 1.15.4 0 .76-.28.76-.28 1.4-1.04 3.64-3.7 3.64-8.47 0-4.76-2.24-7.42-3.64-8.46 0 0-.37-.28-.76-.28-.62 0-1.16.5-1.16 1.15 0 .58.52.96.52.96 1.63 1.19 2.72 3.58 2.72 6.63zm-3.35-4.58s-.35-.49-.95-.49c-.61 0-1.15.51-1.15 1.16 0 .37.23.68.23.68a5.25 5.25 0 0 1 1.05 3.24c0 1.67-.63 2.62-1.05 3.24 0 0-.23.3-.23.68 0 .64.54 1.16 1.15 1.16.6 0 .95-.5.95-.5a7.81 7.81 0 0 0 0-9.17zm-5.58-5.83c-2.35 3.64-4.67 5.32-14.51 5.32a4.23 4.23 0 0 0-4.24 4.2c0 2.26 1.8 4.1 4.04 4.2l2.3 7.4h3.38l-2.27-7.3c7.18.35 9.23 2.03 11.3 5.23.36.56 1.24.3 1.24-.37v-18.3c0-.67-.88-.94-1.24-.38z"/></defs><use xlink:href="#ta" transform="translate(-880 -1070)"/></symbol></svg>